<?xml version="1.0" standalone="no"?>
<!DOCTYPE svg PUBLIC "-//W3C//DTD SVG 20010904//EN"
 "http://www.w3.org/TR/2001/REC-SVG-20010904/DTD/svg10.dtd">
<svg version="1.0" xmlns="http://www.w3.org/2000/svg"
 width="276.000000pt" height="276.000000pt" viewBox="0 0 276.000000 276.000000"
 preserveAspectRatio="xMidYMid meet">
<metadata>
Created by potrace 1.11, written by Peter Selinger 2001-2013
</metadata>
<g transform="translate(0.000000,276.000000) scale(0.100000,-0.100000)"
fill="#000000" stroke="none">
<path d="M1100 2753 c-37 -15 -39 -33 -40 -294 0 -235 2 -259 18 -279 25 -30
80 -30 104 1 16 19 18 48 18 279 l0 259 -26 20 c-27 21 -46 25 -74 14z"/>
<path d="M273 2244 c-45 -45 -34 -67 105 -206 110 -110 132 -128 160 -128 44
0 75 35 69 77 -4 24 -35 61 -127 152 -66 67 -124 122 -128 122 -40 7 -58 3
-79 -17z"/>
<path d="M1915 2260 c-11 -4 -74 -62 -139 -128 -100 -101 -119 -126 -119 -151
0 -41 28 -71 67 -71 27 0 50 19 159 128 107 107 127 132 127 157 -1 54 -48 86
-95 65z"/>
<path d="M1085 1848 c-56 -43 -16 -154 52 -142 37 6 63 38 63 79 0 67 -65 103
-115 63z"/>
<path d="M705 1453 c-27 -6 -55 -42 -55 -71 0 -13 12 -35 26 -49 21 -21 32
-25 66 -20 46 6 67 29 68 73 0 47 -50 79 -105 67z"/>
<path d="M1503 1452 c-27 -4 -53 -38 -53 -70 0 -12 12 -35 26 -49 21 -21 32
-25 66 -20 46 6 67 29 68 73 0 48 -45 75 -107 66z"/>
<path d="M1940 1444 c-55 -23 -46 -116 13 -128 12 -3 133 -4 268 -3 215 2 248
4 262 19 30 29 27 87 -5 107 -30 20 -494 23 -538 5z"/>
<path d="M1079 1039 c-17 -17 -20 -30 -16 -66 5 -49 27 -72 68 -73 60 0 93 96
49 140 -26 26 -74 26 -101 -1z"/>
<path d="M508 849 c-25 -14 -236 -227 -248 -249 -16 -29 -12 -49 15 -75 46
-47 65 -37 206 104 108 108 129 135 129 160 0 20 -8 36 -26 50 -29 23 -50 26
-76 10z"/>
<path d="M1698 853 c-24 -6 -48 -47 -43 -74 5 -25 17 -39 159 -180 79 -79 104
-99 127 -99 39 0 69 32 69 73 0 28 -16 48 -122 154 -118 117 -149 138 -190
126z"/>
<path d="M1080 590 c-19 -19 -20 -33 -20 -280 0 -247 1 -261 20 -280 29 -29
83 -27 104 5 14 21 16 61 16 278 0 241 -1 254 -20 275 -26 28 -73 29 -100 2z"/>
</g>
</svg>
